<svg width="375" height="144" viewBox="0 0 375 144" fill="none" xmlns="http://www.w3.org/2000/svg">
<g clip-path="url(#clip0_2_1909)">
<path d="M0.41687 122.69C0.418222 120.922 1.12303 119.226 2.37637 117.976C3.62972 116.726 5.32905 116.024 7.10087 116.024C8.87269 116.024 10.572 116.726 11.8254 117.976C13.0787 119.226 13.7835 120.922 13.7849 122.69" fill="#F2F2F2"/>
<path d="M7.10081 122.69C7.05291 122.69 7.00696 122.671 6.97309 122.637C6.93921 122.603 6.92017 122.558 6.92017 122.51V118.994C6.92017 118.946 6.9392 118.9 6.97308 118.867C7.00695 118.833 7.0529 118.814 7.10081 118.814C7.14873 118.814 7.19467 118.833 7.22855 118.867C7.26243 118.9 7.28147 118.946 7.28147 118.994V122.51C7.28146 122.558 7.26242 122.603 7.22854 122.637C7.19467 122.671 7.14872 122.69 7.10081 122.69Z" fill="#CCCCCC"/>
<path d="M7.10079 121.482C7.05763 121.482 7.01589 121.467 6.98319 121.438L4.81543 119.582C4.79719 119.566 4.78218 119.547 4.77126 119.526C4.76034 119.505 4.75372 119.482 4.75181 119.458C4.74989 119.434 4.7527 119.411 4.76008 119.388C4.76746 119.365 4.77926 119.344 4.7948 119.326C4.81034 119.308 4.82931 119.293 4.85062 119.283C4.87193 119.272 4.89515 119.266 4.91895 119.264C4.94274 119.262 4.96664 119.265 4.98927 119.273C5.01189 119.28 5.03278 119.292 5.05075 119.308L7.21854 121.165C7.24655 121.189 7.26652 121.221 7.27577 121.257C7.28502 121.292 7.2831 121.33 7.27027 121.364C7.25745 121.399 7.23433 121.429 7.20402 121.45C7.17372 121.471 7.13769 121.482 7.10078 121.482L7.10079 121.482Z" fill="#CCCCCC"/>
<path d="M21.0107 122.69C21.0121 120.922 21.7169 119.226 22.9702 117.976C24.2236 116.726 25.9229 116.024 27.6947 116.024C29.4666 116.024 31.1659 116.726 32.4192 117.976C33.6726 119.226 34.3774 120.922 34.3787 122.69" fill="#F2F2F2"/>
<path d="M27.6948 122.69C27.6469 122.69 27.6009 122.671 27.5671 122.637C27.5332 122.603 27.5142 122.558 27.5142 122.51V118.994C27.5142 118.946 27.5332 118.9 27.5671 118.867C27.6009 118.833 27.6469 118.814 27.6948 118.814C27.7427 118.814 27.7887 118.833 27.8225 118.867C27.8564 118.9 27.8755 118.946 27.8755 118.994V122.51C27.8754 122.558 27.8564 122.603 27.8225 122.637C27.7887 122.671 27.7427 122.69 27.6948 122.69Z" fill="#CCCCCC"/>
<path d="M27.6947 121.482C27.6515 121.482 27.6098 121.467 27.5771 121.438L25.4093 119.582C25.391 119.566 25.376 119.547 25.3651 119.526C25.3541 119.505 25.3475 119.482 25.3456 119.458C25.3436 119.434 25.3464 119.411 25.3538 119.388C25.3612 119.365 25.373 119.344 25.3886 119.326C25.4041 119.308 25.4231 119.293 25.4444 119.283C25.4657 119.272 25.489 119.265 25.5128 119.264C25.5366 119.262 25.5605 119.265 25.5831 119.273C25.6058 119.28 25.6267 119.292 25.6446 119.308L27.8124 121.165C27.8404 121.189 27.8604 121.221 27.8697 121.257C27.8789 121.292 27.877 121.33 27.8642 121.364C27.8513 121.399 27.8282 121.429 27.7979 121.45C27.7676 121.471 27.7316 121.482 27.6947 121.482L27.6947 121.482Z" fill="#CCCCCC"/>
<path d="M31.3637 137.005C37.8153 137.005 43.0453 135.787 43.0453 134.284C43.0453 132.782 37.8153 131.564 31.3637 131.564C24.9121 131.564 19.682 132.782 19.682 134.284C19.682 135.787 24.9121 137.005 31.3637 137.005Z" fill="#F2F2F2"/>
<path d="M25.4004 22.6151C28.4641 13.0672 35.9451 5.66253 44.8169 1.25844C55.3433 -3.96698 67.4392 -4.55862 78.8687 -2.52489C91.2068 -0.32946 102.738 4.73164 113.9 10.2547C124.849 15.6721 135.62 21.3925 147.006 25.8694C169.738 34.7944 193.831 39.7751 218.244 40.5964C240.217 41.328 263.711 38.9252 282.526 26.599C299.765 15.305 310.735 -3.32701 316.448 -22.7488C317.18 -25.2353 317.83 -27.7431 318.399 -30.2723C318.565 -31.0029 317.439 -31.3148 317.273 -30.5822C312.664 -10.3009 302.836 9.74394 286.044 22.6722C267.883 36.6549 244.047 39.8874 221.742 39.5175C197.062 39.0874 172.644 34.3846 149.576 25.6187C137.897 21.1813 126.876 15.4192 115.715 9.85632C104.799 4.41564 93.5758 -0.677319 81.572 -3.18659C70.611 -5.47791 58.8755 -5.61753 48.3073 -1.54023C39.6053 1.81712 31.6709 7.80137 27.0275 15.9876C25.8953 17.9938 24.9726 20.1108 24.274 22.3052C24.0442 23.0214 25.1717 23.3281 25.4004 22.6151Z" fill="#F2F2F2"/>
<path d="M192.177 111.888C192.28 111.888 192.379 111.847 192.452 111.774C192.525 111.701 192.566 111.603 192.566 111.5C192.566 111.396 192.525 111.298 192.452 111.225C192.379 111.152 192.28 111.111 192.177 111.111H188.478V109.556H192.177C192.28 109.556 192.379 109.516 192.452 109.443C192.525 109.37 192.566 109.271 192.566 109.168C192.566 109.065 192.525 108.966 192.452 108.893C192.379 108.82 192.28 108.779 192.177 108.779H160.636C160.533 108.779 160.434 108.82 160.361 108.893C160.288 108.966 160.247 109.065 160.247 109.168C160.247 109.271 160.288 109.37 160.361 109.443C160.434 109.516 160.533 109.556 160.636 109.556H164.335V111.111H160.636C160.533 111.111 160.434 111.152 160.361 111.225C160.288 111.298 160.247 111.396 160.247 111.5C160.247 111.603 160.288 111.701 160.361 111.774C160.434 111.847 160.533 111.888 160.636 111.888H164.335V113.443H160.636C160.533 113.443 160.434 113.484 160.361 113.556C160.288 113.629 160.247 113.728 160.247 113.831C160.247 113.934 160.288 114.033 160.361 114.106C160.434 114.179 160.533 114.22 160.636 114.22H164.335V115.774H161.026C160.819 115.774 160.621 115.856 160.475 116.002C160.329 116.148 160.247 116.346 160.247 116.552C160.247 116.758 160.329 116.955 160.475 117.101C160.621 117.247 160.819 117.329 161.026 117.329H164.176C164.153 117.391 164.141 117.457 164.141 117.523V122.964C164.141 123.119 164.202 123.267 164.312 123.376C164.421 123.485 164.57 123.547 164.725 123.547C164.88 123.547 165.028 123.485 165.138 123.376C165.247 123.267 165.309 123.119 165.309 122.964V117.523C165.308 117.457 165.296 117.391 165.273 117.329H187.54C187.517 117.391 187.505 117.457 187.504 117.523V122.964C187.504 123.119 187.566 123.267 187.675 123.376C187.785 123.485 187.933 123.547 188.088 123.547C188.243 123.547 188.392 123.485 188.501 123.376C188.611 123.267 188.672 123.119 188.672 122.964V117.523C188.672 117.457 188.659 117.391 188.637 117.329H191.787C191.994 117.329 192.192 117.247 192.338 117.101C192.484 116.955 192.566 116.758 192.566 116.552C192.566 116.346 192.484 116.148 192.338 116.002C192.192 115.856 191.994 115.774 191.787 115.774H188.478V114.22H192.177C192.28 114.22 192.379 114.179 192.452 114.106C192.525 114.033 192.566 113.934 192.566 113.831C192.566 113.728 192.525 113.629 192.452 113.556C192.379 113.484 192.28 113.443 192.177 113.443H188.478V111.888H192.177ZM165.114 109.556H187.699V111.111H165.114V109.556ZM187.699 115.774H165.114V114.22H187.699V115.774ZM187.699 113.443H165.114V111.888H187.699V113.443Z" fill="#3F3D56"/>
<path d="M73.4177 95.5771C73.4177 88.7135 67.839 72.4267 60.9573 72.4267C54.0756 72.4267 48.4968 88.7135 48.4968 95.5771C48.4968 98.8753 49.8096 102.038 52.1464 104.371C54.4832 106.703 57.6526 108.013 60.9573 108.013C64.262 108.013 67.4314 106.703 69.7682 104.371C72.1049 102.038 73.4177 98.8753 73.4177 95.5771H73.4177Z" fill="#E6E6E6"/>
<path d="M70.3026 95.5771C70.3026 88.7135 64.7239 72.4267 57.8422 72.4267C50.9605 72.4267 45.3817 88.7135 45.3817 95.5771C45.3817 98.8753 46.6945 102.038 49.0313 104.371C51.3681 106.703 54.5375 108.013 57.8422 108.013C61.1469 108.013 64.3163 106.703 66.6531 104.371C68.9898 102.038 70.3026 98.8753 70.3026 95.5771H70.3026Z" fill="#F2F2F2"/>
<path d="M58.2316 123.383C58.1283 123.383 58.0292 123.342 57.9562 123.269C57.8832 123.196 57.8422 123.098 57.8422 122.995V88.3526C57.8422 88.2495 57.8832 88.1506 57.9562 88.0778C58.0292 88.0049 58.1283 87.9639 58.2316 87.9639C58.3348 87.9639 58.4339 88.0049 58.5069 88.0778C58.5799 88.1506 58.6209 88.2495 58.6209 88.3526V122.995C58.6209 123.098 58.5799 123.196 58.5069 123.269C58.4339 123.342 58.3348 123.383 58.2316 123.383Z" fill="#CCCCCC"/>
<path d="M58.2316 94.0316C58.1546 94.0316 58.0793 94.0088 58.0153 93.9661C57.9513 93.9234 57.9014 93.8627 57.8719 93.7917C57.8425 93.7207 57.8347 93.6425 57.8498 93.5672C57.8648 93.4918 57.9019 93.4226 57.9563 93.3682L63.0486 88.2858C63.1216 88.2129 63.2206 88.1719 63.3239 88.1719C63.4272 88.1719 63.5262 88.2129 63.5992 88.2858C63.6722 88.3586 63.7132 88.4575 63.7132 88.5605C63.7132 88.6636 63.6722 88.7624 63.5992 88.8353L58.5069 93.9177C58.4708 93.9539 58.4279 93.9826 58.3806 94.0021C58.3334 94.0216 58.2827 94.0317 58.2316 94.0316Z" fill="#CCCCCC"/>
<path d="M201.527 123.383C201.423 123.383 201.324 123.342 201.251 123.269C201.178 123.196 201.137 123.098 201.137 122.995V88.3526C201.137 88.2495 201.178 88.1506 201.251 88.0778C201.324 88.0049 201.423 87.9639 201.527 87.9639C201.63 87.9639 201.729 88.0049 201.802 88.0778C201.875 88.1506 201.916 88.2495 201.916 88.3526V122.995C201.916 123.098 201.875 123.196 201.802 123.269C201.729 123.342 201.63 123.383 201.527 123.383Z" fill="#3F3D56"/>
<path d="M243.191 95.5771C243.191 88.7135 237.613 72.4267 230.731 72.4267C223.849 72.4267 218.27 88.7135 218.27 95.5771C218.27 98.8753 219.583 102.038 221.92 104.371C224.257 106.703 227.426 108.013 230.731 108.013C234.036 108.013 237.205 106.703 239.542 104.371C241.879 102.038 243.191 98.8753 243.191 95.5771H243.191Z" fill="#E6E6E6"/>
<path d="M240.076 95.5771C240.076 88.7135 234.497 72.4267 227.616 72.4267C220.734 72.4267 215.155 88.7135 215.155 95.5771C215.155 98.8753 216.468 102.038 218.805 104.371C221.142 106.703 224.311 108.013 227.616 108.013C230.92 108.013 234.09 106.703 236.427 104.371C238.763 102.038 240.076 98.8753 240.076 95.5771H240.076Z" fill="#F2F2F2"/>
<path d="M228.005 123.383C227.902 123.383 227.803 123.342 227.73 123.269C227.657 123.196 227.616 123.098 227.616 122.995V88.3526C227.616 88.2495 227.657 88.1506 227.73 88.0778C227.803 88.0049 227.902 87.9639 228.005 87.9639C228.108 87.9639 228.207 88.0049 228.28 88.0778C228.353 88.1506 228.395 88.2495 228.395 88.3526V122.995C228.395 123.098 228.353 123.196 228.28 123.269C228.207 123.342 228.108 123.383 228.005 123.383Z" fill="#CCCCCC"/>
<path d="M228.005 94.0316C227.928 94.0316 227.853 94.0088 227.789 93.9661C227.725 93.9234 227.675 93.8627 227.645 93.7917C227.616 93.7207 227.608 93.6425 227.623 93.5672C227.638 93.4918 227.675 93.4226 227.73 93.3682L232.822 88.2858C232.895 88.2129 232.994 88.1719 233.097 88.1719C233.201 88.1719 233.3 88.2129 233.373 88.2858C233.446 88.3586 233.487 88.4575 233.487 88.5605C233.487 88.6636 233.446 88.7624 233.373 88.8353L228.28 93.9177C228.244 93.9539 228.201 93.9826 228.154 94.0021C228.107 94.0216 228.056 94.0317 228.005 94.0316Z" fill="#CCCCCC"/>
<path d="M124.038 123.209H92.1084C91.2309 123.208 90.3896 122.859 89.7691 122.24C89.1486 121.621 88.7996 120.781 88.7986 119.905V-8.72848C88.7996 -9.60426 89.1486 -10.4439 89.7691 -11.0632C90.3896 -11.6824 91.2309 -12.0308 92.1084 -12.0318H124.038C124.916 -12.0308 125.757 -11.6825 126.378 -11.0632C126.998 -10.4439 127.347 -9.60427 127.348 -8.72848V119.905C127.347 120.781 126.998 121.621 126.378 122.24C125.757 122.859 124.916 123.208 124.038 123.209Z" fill="#E6E6E6"/>
<path d="M104.958 123.209H73.0283C72.1508 123.208 71.3095 122.859 70.689 122.24C70.0685 121.621 69.7195 120.781 69.7185 119.905V-8.72848C69.7195 -9.60426 70.0685 -10.4439 70.689 -11.0632C71.3095 -11.6824 72.1508 -12.0308 73.0283 -12.0318H104.958C105.836 -12.0308 106.677 -11.6824 107.297 -11.0632C107.918 -10.4439 108.267 -9.60426 108.268 -8.72848V119.905C108.267 120.781 107.918 121.621 107.297 122.24C106.677 122.859 105.836 123.208 104.958 123.209Z" fill="#F2F2F2"/>
<path d="M85.4888 17.1149H78.0904C77.8323 17.1146 77.5849 17.0121 77.4024 16.83C77.2199 16.6479 77.1172 16.4009 77.1169 16.1433V4.87329C77.1172 4.61571 77.2199 4.36876 77.4024 4.18662C77.5849 4.00448 77.8323 3.90203 78.0904 3.90173H85.4888C85.7469 3.90203 85.9943 4.00448 86.1768 4.18662C86.3593 4.36876 86.462 4.61571 86.4623 4.87329V16.1433C86.462 16.4009 86.3593 16.6479 86.1768 16.83C85.9943 17.0121 85.7469 17.1146 85.4888 17.1149Z" fill="white"/>
<path d="M99.8962 17.1149H92.4978C92.2397 17.1146 91.9922 17.0121 91.8097 16.83C91.6272 16.6479 91.5246 16.4009 91.5243 16.1433V4.87329C91.5246 4.61571 91.6272 4.36876 91.8097 4.18662C91.9922 4.00448 92.2397 3.90203 92.4978 3.90173H99.8962C100.154 3.90203 100.402 4.00448 100.584 4.18662C100.767 4.36876 100.869 4.61571 100.87 4.87329V16.1433C100.869 16.4009 100.767 16.6479 100.584 16.83C100.402 17.0121 100.154 17.1146 99.8962 17.1149Z" fill="white"/>
<path d="M85.4888 37.7119H78.0904C77.8323 37.7116 77.5849 37.6091 77.4024 37.427C77.2199 37.2448 77.1172 36.9979 77.1169 36.7403V25.4703C77.1172 25.2127 77.2199 24.9657 77.4024 24.7836C77.5849 24.6015 77.8323 24.499 78.0904 24.4987H85.4888C85.7469 24.499 85.9943 24.6015 86.1768 24.7836C86.3593 24.9657 86.462 25.2127 86.4623 25.4703V36.7403C86.462 36.9979 86.3593 37.2448 86.1768 37.427C85.9943 37.6091 85.7469 37.7116 85.4888 37.7119Z" fill="white"/>
<path d="M99.8962 37.7119H92.4978C92.2397 37.7116 91.9922 37.6091 91.8097 37.427C91.6272 37.2448 91.5246 36.9979 91.5243 36.7403V25.4703C91.5246 25.2127 91.6272 24.9657 91.8097 24.7836C91.9922 24.6015 92.2397 24.499 92.4978 24.4987H99.8962C100.154 24.499 100.402 24.6015 100.584 24.7836C100.767 24.9657 100.869 25.2127 100.87 25.4703V36.7403C100.869 36.9979 100.767 37.2448 100.584 37.427C100.402 37.6091 100.154 37.7116 99.8962 37.7119Z" fill="white"/>
<path d="M85.4888 58.3088H78.0904C77.8323 58.3085 77.5849 58.2061 77.4024 58.0239C77.2199 57.8418 77.1172 57.5949 77.1169 57.3373V46.0672C77.1172 45.8096 77.2199 45.5627 77.4024 45.3806C77.5849 45.1984 77.8323 45.096 78.0904 45.0957H85.4888C85.7469 45.096 85.9943 45.1984 86.1768 45.3806C86.3593 45.5627 86.462 45.8096 86.4623 46.0672V57.3373C86.462 57.5949 86.3593 57.8418 86.1768 58.0239C85.9943 58.2061 85.7469 58.3085 85.4888 58.3088Z" fill="white"/>
<path d="M99.8962 58.3088H92.4978C92.2397 58.3085 91.9922 58.2061 91.8097 58.0239C91.6272 57.8418 91.5246 57.5949 91.5243 57.3373V46.0672C91.5246 45.8096 91.6272 45.5627 91.8097 45.3806C91.9922 45.1984 92.2397 45.096 92.4978 45.0957H99.8962C100.154 45.096 100.402 45.1984 100.584 45.3806C100.767 45.5627 100.869 45.8096 100.87 46.0672V57.3373C100.869 57.5949 100.767 57.8418 100.584 58.0239C100.402 58.2061 100.154 58.3085 99.8962 58.3088Z" fill="white"/>
<path d="M85.4888 78.9058H78.0904C77.8323 78.9055 77.5849 78.803 77.4024 78.6209C77.2199 78.4388 77.1172 78.1918 77.1169 77.9342V66.6642C77.1172 66.4066 77.2199 66.1597 77.4024 65.9775C77.5849 65.7954 77.8323 65.693 78.0904 65.6927H85.4888C85.7469 65.693 85.9943 65.7954 86.1768 65.9775C86.3593 66.1597 86.462 66.4066 86.4623 66.6642V77.9342C86.462 78.1918 86.3593 78.4388 86.1768 78.6209C85.9943 78.803 85.7469 78.9055 85.4888 78.9058Z" fill="white"/>
<path d="M99.8962 78.9058H92.4978C92.2397 78.9055 91.9922 78.803 91.8097 78.6209C91.6272 78.4388 91.5246 78.1918 91.5243 77.9342V66.6642C91.5246 66.4066 91.6272 66.1597 91.8097 65.9775C91.9922 65.7954 92.2397 65.693 92.4978 65.6927H99.8962C100.154 65.693 100.402 65.7954 100.584 65.9775C100.767 66.1597 100.869 66.4066 100.87 66.6642V77.9342C100.869 78.1918 100.767 78.4388 100.584 78.6209C100.402 78.803 100.154 78.9055 99.8962 78.9058Z" fill="white"/>
<path d="M85.4888 99.5028H78.0904C77.8323 99.5025 77.5849 99.4 77.4024 99.2179C77.2199 99.0357 77.1172 98.7888 77.1169 98.5312V87.2612C77.1172 87.0036 77.2199 86.7566 77.4024 86.5745C77.5849 86.3924 77.8323 86.2899 78.0904 86.2896H85.4888C85.7469 86.2899 85.9943 86.3924 86.1768 86.5745C86.3593 86.7566 86.462 87.0036 86.4623 87.2612V98.5312C86.462 98.7888 86.3593 99.0357 86.1768 99.2179C85.9943 99.4 85.7469 99.5025 85.4888 99.5028Z" fill="white"/>
<path d="M99.8962 99.5028H92.4978C92.2397 99.5025 91.9922 99.4 91.8097 99.2179C91.6272 99.0357 91.5246 98.7888 91.5243 98.5312V87.2612C91.5246 87.0036 91.6272 86.7566 91.8097 86.5745C91.9922 86.3924 92.2397 86.2899 92.4978 86.2896H99.8962C100.154 86.2899 100.402 86.3924 100.584 86.5745C100.767 86.7566 100.869 87.0036 100.87 87.2612V98.5312C100.869 98.7888 100.767 99.0357 100.584 99.2179C100.402 99.4 100.154 99.5025 99.8962 99.5028Z" fill="white"/>
<path d="M260.325 57.143H254.094C253.63 57.1424 253.184 56.958 252.856 56.6302C252.527 56.3023 252.343 55.8578 252.342 55.3942V47.2331C252.343 46.7695 252.527 46.325 252.856 45.9971C253.184 45.6693 253.63 45.4848 254.094 45.4843H260.325C260.789 45.4848 261.234 45.6692 261.563 45.9971C261.891 46.3249 262.076 46.7695 262.077 47.2331V55.3942C262.076 55.8578 261.891 56.3023 261.563 56.6302C261.234 56.958 260.789 57.1424 260.325 57.143Z" fill="#E6E6E6"/>
<path d="M312.892 123.597H280.962C280.085 123.596 279.243 123.248 278.623 122.629C278.002 122.009 277.653 121.17 277.652 120.294V58.5031C277.653 57.6274 278.002 56.7877 278.623 56.1685C279.243 55.5492 280.085 55.2008 280.962 55.1999H312.892C313.769 55.2008 314.611 55.5492 315.231 56.1685C315.852 56.7877 316.201 57.6274 316.202 58.5031V120.294C316.201 121.17 315.852 122.009 315.231 122.629C314.611 123.248 313.769 123.596 312.892 123.597Z" fill="#E6E6E6"/>
<path d="M293.812 123.597H238.519C237.641 123.596 236.8 123.248 236.179 122.629C235.559 122.009 235.21 121.17 235.209 120.294V58.5031C235.21 57.6274 235.559 56.7877 236.179 56.1685C236.8 55.5492 237.641 55.2008 238.519 55.1999H293.812C294.689 55.2008 295.531 55.5492 296.151 56.1685C296.772 56.7877 297.121 57.6274 297.122 58.5031V120.294C297.121 121.17 296.772 122.009 296.151 122.629C295.531 123.248 294.689 123.596 293.812 123.597Z" fill="#F2F2F2"/>
<path d="M254.484 57.143H248.253C247.789 57.1424 247.343 56.958 247.015 56.6302C246.686 56.3023 246.502 55.8578 246.501 55.3942V47.2331C246.502 46.7695 246.686 46.325 247.015 45.9971C247.343 45.6693 247.789 45.4848 248.253 45.4843H254.484C254.948 45.4848 255.394 45.6692 255.722 45.9971C256.051 46.3249 256.235 46.7695 256.236 47.2331V55.3942C256.235 55.8578 256.051 56.3023 255.722 56.6302C255.394 56.958 254.948 57.1424 254.484 57.143Z" fill="#F2F2F2"/>
<path d="M262.661 85.7067H255.262C255.004 85.7064 254.757 85.6039 254.574 85.4218C254.392 85.2396 254.289 84.9927 254.289 84.7351V73.4651C254.289 73.2075 254.392 72.9606 254.574 72.7784C254.757 72.5963 255.004 72.4938 255.262 72.4935H262.661C262.919 72.4938 263.166 72.5963 263.349 72.7784C263.531 72.9606 263.634 73.2075 263.634 73.4651V84.7351C263.634 84.9927 263.531 85.2396 263.349 85.4218C263.166 85.6039 262.919 85.7064 262.661 85.7067Z" fill="white"/>
<path d="M277.068 85.7067H269.67C269.412 85.7064 269.164 85.6039 268.982 85.4218C268.799 85.2396 268.697 84.9927 268.696 84.7351V73.4651C268.697 73.2075 268.799 72.9606 268.982 72.7784C269.164 72.5963 269.412 72.4938 269.67 72.4935H277.068C277.326 72.4938 277.574 72.5963 277.756 72.7784C277.939 72.9606 278.041 73.2075 278.042 73.4651V84.7351C278.041 84.9927 277.939 85.2396 277.756 85.4218C277.574 85.6039 277.326 85.7064 277.068 85.7067Z" fill="white"/>
<path d="M262.661 106.304H255.262C255.004 106.303 254.757 106.201 254.574 106.019C254.392 105.837 254.289 105.59 254.289 105.332V94.0621C254.289 93.8045 254.392 93.5575 254.574 93.3754C254.757 93.1933 255.004 93.0908 255.262 93.0905H262.661C262.919 93.0908 263.166 93.1933 263.349 93.3754C263.531 93.5575 263.634 93.8045 263.634 94.0621V105.332C263.634 105.59 263.531 105.837 263.349 106.019C263.166 106.201 262.919 106.303 262.661 106.304Z" fill="white"/>
<path d="M277.068 106.304H269.67C269.412 106.303 269.164 106.201 268.982 106.019C268.799 105.837 268.697 105.59 268.696 105.332V94.0621C268.697 93.8045 268.799 93.5575 268.982 93.3754C269.164 93.1933 269.412 93.0908 269.67 93.0905H277.068C277.326 93.0908 277.574 93.1933 277.756 93.3754C277.939 93.5575 278.041 93.8045 278.042 94.0621V105.332C278.041 105.59 277.939 105.837 277.756 106.019C277.574 106.201 277.326 106.303 277.068 106.304Z" fill="white"/>
<path d="M396.611 123.792H-10.6106C-10.7139 123.792 -10.8129 123.751 -10.886 123.678C-10.959 123.605 -11 123.506 -11 123.403C-11 123.3 -10.959 123.201 -10.886 123.128C-10.8129 123.055 -10.7139 123.014 -10.6106 123.014H396.611C396.714 123.014 396.813 123.055 396.886 123.128C396.959 123.201 397 123.3 397 123.403C397 123.506 396.959 123.605 396.886 123.678C396.813 123.751 396.714 123.792 396.611 123.792Z" fill="#E6E6E6"/>
<path d="M130.268 137.393H94.0553C93.952 137.393 93.853 137.352 93.7799 137.28C93.7069 137.207 93.6659 137.108 93.6659 137.005C93.6659 136.902 93.7069 136.803 93.7799 136.73C93.853 136.657 93.952 136.616 94.0553 136.616H130.268C130.372 136.616 130.471 136.657 130.544 136.73C130.617 136.803 130.658 136.902 130.658 137.005C130.658 137.108 130.617 137.207 130.544 137.28C130.471 137.352 130.372 137.393 130.268 137.393Z" fill="#E6E6E6"/>
<path d="M220.217 137.393H184.004C183.901 137.393 183.802 137.352 183.729 137.28C183.656 137.207 183.615 137.108 183.615 137.005C183.615 136.902 183.656 136.803 183.729 136.73C183.802 136.657 183.901 136.616 184.004 136.616H220.217C220.321 136.616 220.42 136.657 220.493 136.73C220.566 136.803 220.607 136.902 220.607 137.005C220.607 137.108 220.566 137.207 220.493 137.28C220.42 137.352 220.321 137.393 220.217 137.393Z" fill="#E6E6E6"/>
<path d="M310.166 137.393H273.953C273.85 137.393 273.751 137.352 273.678 137.28C273.605 137.207 273.564 137.108 273.564 137.005C273.564 136.902 273.605 136.803 273.678 136.73C273.751 136.657 273.85 136.616 273.953 136.616H310.166C310.27 136.616 310.369 136.657 310.442 136.73C310.515 136.803 310.556 136.902 310.556 137.005C310.556 137.108 310.515 137.207 310.442 137.28C310.369 137.352 310.27 137.393 310.166 137.393Z" fill="#E6E6E6"/>
<path d="M150.906 95.5771C150.906 88.7135 145.327 72.4267 138.446 72.4267C131.564 72.4267 125.985 88.7135 125.985 95.5771C125.985 98.8753 127.298 102.038 129.635 104.371C131.972 106.703 135.141 108.013 138.446 108.013C141.75 108.013 144.92 106.703 147.257 104.371C149.593 102.038 150.906 98.8753 150.906 95.5771H150.906Z" fill="#E6E6E6"/>
<path d="M147.791 95.5771C147.791 88.7135 142.212 72.4267 135.331 72.4267C128.449 72.4267 122.87 88.7135 122.87 95.5771C122.87 98.8753 124.183 102.038 126.52 104.371C128.856 106.703 132.026 108.013 135.331 108.013C138.635 108.013 141.805 106.703 144.141 104.371C146.478 102.038 147.791 98.8753 147.791 95.5771Z" fill="#F2F2F2"/>
<path d="M135.72 123.383C135.617 123.383 135.518 123.342 135.445 123.269C135.372 123.196 135.331 123.098 135.331 122.995V88.3526C135.331 88.2495 135.372 88.1506 135.445 88.0778C135.518 88.0049 135.617 87.9639 135.72 87.9639C135.823 87.9639 135.922 88.0049 135.995 88.0778C136.068 88.1506 136.109 88.2495 136.109 88.3526V122.995C136.109 123.098 136.068 123.196 135.995 123.269C135.922 123.342 135.823 123.383 135.72 123.383Z" fill="#CCCCCC"/>
<path d="M135.72 94.0316C135.643 94.0316 135.568 94.0088 135.504 93.9661C135.44 93.9234 135.39 93.8627 135.36 93.7917C135.331 93.7207 135.323 93.6425 135.338 93.5672C135.353 93.4918 135.39 93.4226 135.445 93.3682L140.537 88.2858C140.61 88.2129 140.709 88.1719 140.812 88.1719C140.916 88.1719 141.015 88.2129 141.088 88.2858C141.161 88.3586 141.202 88.4575 141.202 88.5605C141.202 88.6636 141.161 88.7624 141.088 88.8353L135.995 93.9177C135.959 93.9539 135.916 93.9826 135.869 94.0021C135.822 94.0216 135.771 94.0317 135.72 94.0316Z" fill="#CCCCCC"/>
<path d="M349.884 95.5771C349.884 88.7135 344.305 72.4267 337.423 72.4267C330.542 72.4267 324.963 88.7135 324.963 95.5771C324.963 98.8753 326.276 102.038 328.612 104.371C330.949 106.703 334.119 108.013 337.423 108.013C340.728 108.013 343.897 106.703 346.234 104.371C348.571 102.038 349.884 98.8753 349.884 95.5771H349.884Z" fill="#E6E6E6"/>
<path d="M346.769 95.5771C346.769 88.7135 341.19 72.4267 334.308 72.4267C327.427 72.4267 321.848 88.7135 321.848 95.5771C321.848 98.8753 323.161 102.038 325.497 104.371C327.834 106.703 331.004 108.013 334.308 108.013C337.613 108.013 340.782 106.703 343.119 104.371C345.456 102.038 346.769 98.8753 346.769 95.5771H346.769Z" fill="#F2F2F2"/>
<path d="M334.698 123.383C334.594 123.383 334.495 123.342 334.422 123.269C334.349 123.196 334.308 123.098 334.308 122.995V88.3526C334.308 88.2495 334.349 88.1506 334.422 88.0778C334.495 88.0049 334.594 87.9639 334.698 87.9639C334.801 87.9639 334.9 88.0049 334.973 88.0778C335.046 88.1506 335.087 88.2495 335.087 88.3526V122.995C335.087 123.098 335.046 123.196 334.973 123.269C334.9 123.342 334.801 123.383 334.698 123.383Z" fill="#CCCCCC"/>
<path d="M334.698 94.0316C334.621 94.0316 334.545 94.0088 334.481 93.9661C334.417 93.9234 334.367 93.8627 334.338 93.7917C334.309 93.7207 334.301 93.6425 334.316 93.5672C334.331 93.4918 334.368 93.4226 334.422 93.3682L339.515 88.2858C339.588 88.2129 339.687 88.1719 339.79 88.1719C339.893 88.1719 339.992 88.2129 340.065 88.2858C340.138 88.3586 340.179 88.4575 340.179 88.5605C340.179 88.6636 340.138 88.7624 340.065 88.8353L334.973 93.9177C334.937 93.9539 334.894 93.9826 334.847 94.0021C334.799 94.0216 334.749 94.0317 334.698 94.0316Z" fill="#CCCCCC"/>
<path d="M205.81 99.8914H197.243C196.985 99.8911 196.738 99.7887 196.555 99.6066C196.373 99.4244 196.27 99.1774 196.27 98.9198V90.3701C196.27 90.1125 196.373 89.8656 196.555 89.6834C196.738 89.5013 196.985 89.3988 197.243 89.3986H205.81C206.068 89.3988 206.316 89.5013 206.498 89.6834C206.681 89.8656 206.783 90.1125 206.783 90.3701V98.9198C206.783 99.1774 206.681 99.4244 206.498 99.6066C206.316 99.7887 206.068 99.8911 205.81 99.8914Z" fill="#3F3D56"/>
<path d="M288.97 104.055C289.064 104.079 289.151 104.124 289.225 104.186C289.3 104.248 289.36 104.325 289.401 104.412C289.442 104.5 289.464 104.595 289.464 104.691C289.464 104.788 289.443 104.883 289.403 104.971L291.096 106.601L289.903 106.868L288.478 105.279C288.335 105.201 288.226 105.074 288.171 104.921C288.116 104.768 288.119 104.6 288.179 104.449C288.24 104.298 288.354 104.175 288.5 104.102C288.645 104.029 288.813 104.013 288.97 104.055H288.97Z" fill="#FFB8B8"/>
<path d="M291.351 108.342L289.262 106.386C289.234 106.359 289.21 106.327 289.194 106.29C289.178 106.254 289.17 106.216 289.169 106.176C289.168 106.137 289.175 106.097 289.19 106.061C289.205 106.024 289.226 105.991 289.254 105.963L289.681 105.532C289.731 105.481 289.799 105.45 289.871 105.445C289.943 105.44 290.014 105.461 290.071 105.504L291.822 106.84L292.914 104.196C292.957 104.092 293.021 103.998 293.102 103.919C293.183 103.84 293.279 103.779 293.385 103.739C293.491 103.699 293.604 103.682 293.716 103.687C293.829 103.692 293.94 103.72 294.041 103.77C294.201 103.847 294.332 103.974 294.414 104.132C294.495 104.29 294.523 104.469 294.494 104.644C294.296 105.847 293.095 107.436 292.397 108.276C292.302 108.391 292.173 108.473 292.029 108.512C291.885 108.55 291.733 108.543 291.593 108.492C291.503 108.458 291.421 108.407 291.351 108.342Z" fill="#6C63FF"/>
<path d="M290.179 106.445L288.641 104.219C288.621 104.19 288.614 104.154 288.62 104.12C288.627 104.086 288.646 104.056 288.675 104.036L288.737 103.993C288.751 103.984 288.767 103.977 288.784 103.973C288.801 103.969 288.818 103.969 288.835 103.972C288.852 103.975 288.868 103.982 288.883 103.991C288.897 104.001 288.91 104.013 288.92 104.027L290.457 106.253C290.467 106.267 290.474 106.283 290.478 106.3C290.481 106.317 290.482 106.334 290.479 106.351C290.475 106.368 290.469 106.384 290.46 106.399C290.45 106.413 290.438 106.426 290.424 106.436L290.362 106.478C290.333 106.498 290.298 106.505 290.264 106.499C290.229 106.493 290.199 106.473 290.179 106.445Z" fill="white"/>
<path d="M289.749 106.461L288.473 104.614C288.418 104.535 288.398 104.437 288.415 104.343C288.432 104.249 288.486 104.166 288.565 104.111L288.695 104.022L290.383 106.464L290.253 106.553C290.174 106.608 290.076 106.629 289.982 106.611C289.887 106.594 289.804 106.54 289.749 106.461Z" fill="#3F3D56"/>
<path d="M289.904 122.406L289.102 122.314L289.208 119.199L290.26 119.321L289.904 122.406Z" fill="#FFB8B8"/>
<path d="M290.018 123.206L287.433 122.908L287.437 122.875C287.452 122.743 287.494 122.616 287.558 122.5C287.623 122.384 287.71 122.282 287.814 122.199C287.918 122.117 288.038 122.055 288.166 122.019C288.293 121.983 288.427 121.972 288.559 121.987H288.559L290.138 122.169L290.018 123.206Z" fill="#2F2E41"/>
<path d="M299.225 121.815L298.454 122.053L297.169 119.198L298.306 118.847L299.225 121.815Z" fill="#FFB8B8"/>
<path d="M299.653 122.5L297.167 123.267L297.157 123.235C297.118 123.108 297.104 122.975 297.116 122.843C297.129 122.711 297.167 122.582 297.229 122.465C297.291 122.348 297.376 122.244 297.478 122.159C297.58 122.074 297.699 122.01 297.826 121.971H297.826L299.344 121.503L299.653 122.5Z" fill="#2F2E41"/>
<path d="M289.008 121.688C288.927 121.663 288.859 121.607 288.818 121.533C288.777 121.458 288.766 121.371 288.789 121.289L289.272 115.737C289.294 115.484 289.374 115.239 289.505 115.021L292.431 110.176L295.048 110.646L295.065 110.653C296.337 111.43 297.466 115.201 298.559 118.847C298.729 119.414 298.904 120.001 299.076 120.561C299.108 120.641 299.107 120.73 299.074 120.81C299.041 120.889 298.977 120.953 298.898 120.986L298.106 121.319C298.03 121.351 297.946 121.354 297.869 121.327C297.792 121.3 297.728 121.246 297.689 121.174L293.615 113.73C293.61 113.72 293.602 113.712 293.593 113.706C293.585 113.7 293.575 113.697 293.564 113.696C293.553 113.694 293.543 113.696 293.533 113.699C293.523 113.703 293.514 113.709 293.508 113.717L291.143 116.388L290.274 121.477L290.27 121.488C290.239 121.561 290.182 121.62 290.111 121.654C290.039 121.689 289.958 121.696 289.881 121.675L289.029 121.691L289.024 121.691L289.008 121.688Z" fill="#2F2E41"/>
<path d="M292.289 110.707L292.272 110.702L292.267 110.686C292.255 110.645 291.059 106.604 292.137 104.029L292.138 104.026C292.17 103.965 292.922 102.523 293.796 102.378L293.819 102.375L294.103 102.905C294.192 102.994 295.729 104.587 295.032 107.325C295.094 107.55 295.943 110.633 295.482 111.093C295.313 111.209 295.109 111.261 294.906 111.238C294.016 111.162 293.138 110.984 292.289 110.707Z" fill="#8BC83F"/>
<path d="M293.615 101.873C294.742 101.873 295.656 100.962 295.656 99.8369C295.656 98.7122 294.742 97.8005 293.615 97.8005C292.488 97.8005 291.575 98.7122 291.575 99.8369C291.575 100.962 292.488 101.873 293.615 101.873Z" fill="#2F2E41"/>
<path d="M292.805 101.864C293.698 101.864 294.422 101.141 294.422 100.25C294.422 99.3591 293.698 98.6368 292.805 98.6368C291.912 98.6368 291.188 99.3591 291.188 100.25C291.188 101.141 291.912 101.864 292.805 101.864Z" fill="#FFB8B8"/>
<path d="M293.845 101.817C293.698 101.87 293.517 101.916 293.401 101.807C293.352 101.745 293.324 101.67 293.319 101.591C293.315 101.512 293.334 101.434 293.375 101.366C293.459 101.233 293.526 101.091 293.577 100.942C293.592 100.83 293.578 100.716 293.536 100.612C293.494 100.507 293.425 100.415 293.337 100.344C293.162 100.211 292.963 100.111 292.751 100.05L291.62 99.6488C291.325 99.5796 291.064 99.4108 290.881 99.1711C290.786 98.9715 290.77 98.7437 290.835 98.5327C290.901 98.3217 291.043 98.1427 291.233 98.031C291.426 97.9342 291.637 97.8818 291.852 97.8775C292.067 97.8733 292.281 97.9174 292.477 98.0065C292.693 98.107 292.914 98.1953 293.14 98.2712C293.593 98.3905 294.108 98.2835 294.506 98.5385C294.674 98.6657 294.808 98.8329 294.894 99.0248C294.981 99.2167 295.018 99.4272 295.002 99.6371C294.968 100.059 294.855 100.471 294.669 100.852C294.583 101.087 294.458 101.305 294.3 101.499C294.222 101.594 294.123 101.669 294.011 101.717C293.898 101.765 293.776 101.786 293.654 101.777L293.845 101.817Z" fill="#2F2E41"/>
<path d="M295.327 100.165C296.054 100.165 296.643 99.5772 296.643 98.8516C296.643 98.126 296.054 97.5378 295.327 97.5378C294.6 97.5378 294.01 98.126 294.01 98.8516C294.01 99.5772 294.6 100.165 295.327 100.165Z" fill="#2F2E41"/>
<path d="M293.155 100.757C293.155 100.733 293.161 100.709 293.173 100.689C293.186 100.668 293.203 100.652 293.224 100.641C293.245 100.629 293.269 100.624 293.293 100.625C293.317 100.626 293.34 100.634 293.36 100.647C293.38 100.661 293.395 100.679 293.406 100.701C293.416 100.722 293.42 100.746 293.417 100.77C293.415 100.794 293.406 100.816 293.391 100.835C293.377 100.855 293.358 100.869 293.336 100.878V101.167C293.336 101.174 293.334 101.18 293.332 101.186C293.33 101.192 293.326 101.198 293.321 101.202C293.317 101.207 293.311 101.211 293.305 101.213C293.299 101.216 293.293 101.217 293.286 101.217C293.28 101.217 293.273 101.216 293.267 101.213C293.261 101.211 293.256 101.207 293.251 101.202C293.247 101.198 293.243 101.192 293.241 101.186C293.238 101.18 293.237 101.174 293.237 101.167V100.878C293.213 100.868 293.192 100.852 293.177 100.83C293.163 100.808 293.155 100.783 293.155 100.757Z" fill="white"/>
<path d="M289.05 105.434C289.146 105.424 289.244 105.436 289.335 105.468C289.426 105.5 289.509 105.551 289.579 105.619C289.648 105.687 289.701 105.768 289.735 105.859C289.769 105.949 289.783 106.046 289.776 106.142L291.932 107.081L290.907 107.746L289.017 106.753C288.855 106.729 288.708 106.648 288.603 106.524C288.498 106.399 288.442 106.241 288.447 106.078C288.451 105.916 288.514 105.76 288.626 105.642C288.737 105.523 288.888 105.449 289.05 105.434Z" fill="#FFB8B8"/>
<path d="M292.779 108.624L290.138 107.517C290.102 107.502 290.069 107.48 290.041 107.451C290.013 107.423 289.992 107.39 289.977 107.353C289.963 107.316 289.956 107.277 289.957 107.238C289.958 107.198 289.967 107.159 289.983 107.123L290.232 106.571C290.262 106.505 290.314 106.453 290.38 106.423C290.445 106.393 290.52 106.389 290.589 106.41L292.695 107.052L292.796 104.195C292.8 104.082 292.827 103.971 292.875 103.869C292.924 103.767 292.993 103.677 293.078 103.602C293.163 103.528 293.263 103.472 293.37 103.438C293.478 103.404 293.592 103.392 293.704 103.403C293.881 103.42 294.048 103.493 294.179 103.613C294.311 103.732 294.4 103.891 294.433 104.065C294.667 105.261 294.097 107.168 293.737 108.199C293.687 108.339 293.595 108.461 293.474 108.547C293.352 108.633 293.207 108.68 293.058 108.68C292.962 108.68 292.867 108.661 292.779 108.624Z" fill="#8BC83F"/>
<path d="M22.0173 107.948H17.9731V106.722C19.2511 105.835 20.3834 105.912 21.8729 106.794L22.0173 107.948Z" fill="#6C63FF"/>
<path d="M17.0368 129.711H16.1513L16.0189 126.303H17.0368V129.711Z" fill="#FFB8B8"/>
<path d="M17.2625 130.568L14.4077 130.568V130.532C14.4077 130.386 14.4365 130.242 14.4923 130.107C14.5481 129.973 14.63 129.85 14.7332 129.747C14.8363 129.644 14.9588 129.563 15.0937 129.507C15.2285 129.451 15.373 129.423 15.5189 129.423H15.519L17.2626 129.423L17.2625 130.568Z" fill="#2F2E41"/>
<path d="M22.0237 129.711H22.9088L23.0412 126.303H22.0233L22.0237 129.711Z" fill="#FFB8B8"/>
<path d="M21.7977 129.423L23.5413 129.423H23.5414C23.6873 129.423 23.8318 129.451 23.9666 129.507C24.1014 129.563 24.2239 129.644 24.3271 129.747C24.4303 129.85 24.5122 129.973 24.568 130.107C24.6238 130.242 24.6526 130.386 24.6526 130.532V130.568L21.7978 130.568L21.7977 129.423Z" fill="#2F2E41"/>
<path d="M22.0469 129.274C21.973 129.274 21.9014 129.249 21.8438 129.203C21.7861 129.157 21.7459 129.092 21.7296 129.02L19.5351 119.468C19.5303 119.443 19.5171 119.422 19.4977 119.406C19.4784 119.391 19.4542 119.382 19.4294 119.383H19.4289C19.404 119.383 19.3797 119.391 19.3604 119.407C19.3411 119.422 19.328 119.444 19.3234 119.469L17.3082 128.957C17.2925 129.03 17.2524 129.095 17.1946 129.141C17.1368 129.188 17.0647 129.214 16.9903 129.214H16.0303C15.986 129.214 15.9422 129.205 15.9015 129.188C15.8609 129.17 15.8242 129.144 15.7938 129.112C15.7634 129.08 15.74 129.042 15.7248 129.001C15.7097 128.959 15.7033 128.915 15.7059 128.871L16.4209 116.845L16.7086 116.76L16.714 116.76L22.3656 116.809L23.5693 128.822C23.5735 128.865 23.5691 128.908 23.5564 128.949C23.5437 128.99 23.5229 129.028 23.4952 129.061C23.4675 129.095 23.4335 129.122 23.3952 129.141C23.3569 129.161 23.315 129.173 23.272 129.177L22.0729 129.273C22.0642 129.274 22.0555 129.274 22.0469 129.274Z" fill="#2F2E41"/>
<path d="M19.7129 105.752C20.6926 105.752 21.4867 104.959 21.4867 103.981C21.4867 103.004 20.6926 102.211 19.7129 102.211C18.7333 102.211 17.9392 103.004 17.9392 103.981C17.9392 104.959 18.7333 105.752 19.7129 105.752Z" fill="#FFB8B8"/>
<path d="M18.6263 118.163C18.3151 118.167 18.0052 118.123 17.7071 118.034C17.4421 117.954 17.1962 117.821 16.9845 117.643C16.7729 117.465 16.6001 117.245 16.4767 116.998C16.4376 116.923 16.4289 116.837 16.4525 116.756C16.6481 116.09 17.5934 112.626 16.9903 109.873C16.9051 109.49 16.8981 109.094 16.9695 108.709C17.0409 108.324 17.1893 107.957 17.4059 107.63C17.6174 107.306 17.8923 107.027 18.2139 106.812C18.5356 106.596 18.8976 106.447 19.2783 106.373V106.373C19.3783 106.354 19.4789 106.338 19.5772 106.326C19.998 106.274 20.425 106.316 20.8278 106.448C21.2305 106.58 21.5989 106.8 21.9068 107.091C22.2238 107.387 22.4711 107.75 22.6311 108.153C22.7911 108.557 22.8598 108.99 22.8323 109.423L22.3688 116.847C22.3656 116.903 22.3479 116.956 22.3176 117.003C22.2872 117.05 22.2452 117.088 22.1956 117.114C21.6617 117.393 20.058 118.163 18.6263 118.163Z" fill="#3F3D56"/>
<path d="M21.7168 102.678C21.5325 102.216 21.195 101.831 20.7606 101.587C20.3262 101.343 19.8212 101.256 19.3298 101.339L19.889 101.79C19.1942 101.813 18.4628 101.764 17.9666 102.25C18.1246 102.245 18.3316 102.582 18.4895 102.578C18.3417 102.588 18.1994 102.638 18.0774 102.722C17.9555 102.806 17.8583 102.921 17.796 103.055C17.6752 103.327 17.647 103.631 17.7156 103.92C17.8946 104.346 18.1027 104.758 18.3386 105.155C18.318 104.451 19.707 102.772 20.3853 102.947C20.0407 103.075 19.7417 103.301 19.5259 103.598C19.9874 103.366 20.5093 103.28 21.0209 103.354C21.1377 103.381 21.2582 103.387 21.3773 103.374C21.4503 103.36 21.5184 103.327 21.575 103.279C21.6316 103.23 21.675 103.169 21.7008 103.099C21.7267 103.029 21.7343 102.954 21.7228 102.881C21.7113 102.808 21.6812 102.738 21.6353 102.68L21.7168 102.678Z" fill="#2F2E41"/>
<path d="M18.5041 117.717C18.4593 117.717 18.415 117.708 18.374 117.69L15.0086 116.224C14.9371 116.193 14.8791 116.138 14.8452 116.068C14.8113 115.998 14.8039 115.918 14.8242 115.843L17.0521 107.444C17.0935 107.288 17.1658 107.141 17.2646 107.013C17.3634 106.885 17.4869 106.778 17.6277 106.698C17.7685 106.618 17.9239 106.567 18.0847 106.548C18.2456 106.528 18.4087 106.541 18.5644 106.586L19.4552 106.84L18.8281 117.412C18.8249 117.464 18.8091 117.514 18.7821 117.559C18.7552 117.604 18.7178 117.642 18.6731 117.669C18.6223 117.7 18.5638 117.717 18.5041 117.717Z" fill="#1F4C6B"/>
<path d="M24.7328 115.843L24.5847 115.286L24.3702 114.476L24.2669 114.088L24.0525 113.28L22.5048 107.444C22.4636 107.287 22.3914 107.141 22.2926 107.013C22.1938 106.885 22.0703 106.777 21.9295 106.697C21.7886 106.618 21.6332 106.567 21.4723 106.547C21.3114 106.528 21.1483 106.541 20.9926 106.586L20.1022 106.84L20.5434 114.276L20.5889 115.052L20.6178 115.541V115.542L20.664 116.314L20.729 117.412C20.7343 117.494 20.7707 117.572 20.8309 117.628C20.8911 117.685 20.9705 117.717 21.0533 117.717C21.098 117.717 21.1423 117.708 21.1833 117.69L24.5486 116.224C24.6201 116.193 24.6782 116.138 24.712 116.068C24.7459 115.998 24.7532 115.918 24.7328 115.843Z" fill="#1F4C6B"/>
<path d="M24.2669 114.088L20.5888 115.052L20.5432 114.276L24.0524 113.279L24.2669 114.088Z" fill="#CCCCCC"/>
<path d="M24.5847 115.286L20.6639 116.314L20.6176 115.542V115.541L24.3701 114.476L24.5847 115.286Z" fill="#CCCCCC"/>
<path d="M18.9685 114.443L18.923 115.205L15.3157 114.132L15.5271 113.335L18.9685 114.443Z" fill="#CCCCCC"/>
<path d="M18.8935 115.706L15.2126 114.521L15.0007 115.32L18.8487 116.464L18.8935 115.706Z" fill="#CCCCCC"/>
<path d="M15.2764 116.503C15.3862 116.475 15.4883 116.422 15.5756 116.35C15.6629 116.278 15.7333 116.187 15.7818 116.085C15.8303 115.983 15.8557 115.871 15.8563 115.758C15.8569 115.645 15.8326 115.533 15.7851 115.43L17.5156 110.008L16.2885 109.751L14.702 115.067C14.5342 115.158 14.4057 115.308 14.3409 115.487C14.2761 115.666 14.2794 115.863 14.3502 116.04C14.421 116.217 14.5544 116.362 14.7251 116.447C14.8958 116.533 15.092 116.552 15.2764 116.503V116.503Z" fill="#FFB8B8"/>
<path d="M17.5636 107.342C17.9159 107.378 18.1141 107.774 18.0265 108.266L17.6061 110.629C17.5746 110.806 17.4286 110.946 17.3072 110.916L15.8852 110.561C15.7758 110.534 15.7355 110.378 15.7975 110.223L16.6512 108.086C16.7089 107.884 16.8273 107.704 16.9905 107.571C17.1536 107.438 17.3536 107.359 17.5636 107.342Z" fill="#234F68"/>
<path d="M19.7063 100.668C20.3067 100.668 20.8834 100.901 21.3144 101.318C21.7454 101.735 21.9968 102.303 22.0155 102.902H22.4506C22.4889 102.902 22.5257 102.917 22.5527 102.944C22.5798 102.972 22.595 103.008 22.595 103.046V103.623C22.595 103.661 22.5798 103.698 22.5527 103.725C22.5257 103.752 22.4889 103.767 22.4506 103.767H17.5398C17.5015 103.767 17.4648 103.752 17.4377 103.725C17.4106 103.698 17.3954 103.661 17.3954 103.623V102.974C17.3954 102.671 17.4552 102.372 17.5713 102.092C17.6874 101.812 17.8577 101.558 18.0722 101.343C18.2868 101.129 18.5416 100.959 18.822 100.843C19.1024 100.728 19.4029 100.668 19.7063 100.668Z" fill="#1F4C6B"/>
<path d="M19.9825 114.925H18.9617C18.9289 114.925 18.8973 114.913 18.8731 114.891C18.8488 114.869 18.8336 114.839 18.8306 114.806L18.6262 112.716H20.318L20.1137 114.806C20.1106 114.839 20.0954 114.869 20.0712 114.891C20.0469 114.913 20.0153 114.925 19.9825 114.925Z" fill="#E6E6E6"/>
<path d="M20.3153 112.979H18.6289C18.594 112.979 18.5605 112.965 18.5358 112.94C18.5111 112.916 18.4972 112.882 18.4972 112.847V112.532C18.4972 112.497 18.5111 112.463 18.5358 112.439C18.5605 112.414 18.594 112.4 18.6289 112.4H20.3153C20.3502 112.4 20.3837 112.414 20.4084 112.439C20.4331 112.463 20.447 112.497 20.4471 112.532V112.847C20.447 112.882 20.4331 112.916 20.4084 112.94C20.3837 112.965 20.3502 112.979 20.3153 112.979Z" fill="#CCCCCC"/>
<path d="M19.494 113.804C19.5337 113.808 19.573 113.816 19.6115 113.827L22.3302 111.5L22.1713 110.646L23.431 110.238L23.8595 111.722C23.8941 111.842 23.8888 111.97 23.8444 112.087C23.8 112.204 23.7189 112.303 23.6133 112.369L20.1701 114.544C20.1725 114.698 20.1281 114.848 20.0426 114.976C19.9571 115.104 19.8347 115.203 19.6916 115.259C19.5485 115.316 19.3915 115.328 19.2415 115.293C19.0915 115.258 18.9556 115.179 18.8519 115.066C18.7482 114.952 18.6816 114.81 18.6609 114.657C18.6403 114.505 18.6665 114.35 18.7362 114.213C18.8059 114.076 18.9158 113.964 19.0512 113.891C19.1865 113.817 19.341 113.787 19.4941 113.804H19.494Z" fill="#FFB8B8"/>
<path d="M22.3373 107.538C22.7137 107.433 23.0898 107.718 23.2158 108.206L23.8205 110.543C23.8658 110.718 23.7778 110.904 23.6403 110.924L22.0293 111.155C21.9054 111.173 21.7962 111.046 21.7916 110.879L21.7291 108.579C21.7051 108.363 21.7513 108.146 21.8608 107.958C21.9704 107.771 22.1374 107.623 22.3373 107.538Z" fill="#1F4C6B"/>
<path d="M40.6485 113.861H39.422C39.3826 113.861 39.3446 113.847 39.3155 113.82C39.2863 113.794 39.2681 113.758 39.2644 113.719L39.0189 111.207H41.0515L40.806 113.719C40.8023 113.758 40.7841 113.794 40.7549 113.82C40.7258 113.847 40.6878 113.861 40.6485 113.861Z" fill="#E6E6E6"/>
<path d="M41.0483 111.523H39.0222C38.9802 111.523 38.94 111.507 38.9103 111.477C38.8806 111.447 38.8639 111.407 38.8639 111.365V110.986C38.8639 110.944 38.8806 110.904 38.9103 110.874C38.94 110.845 38.9802 110.828 39.0222 110.828H41.0483C41.0902 110.828 41.1305 110.845 41.1601 110.874C41.1898 110.904 41.2065 110.944 41.2065 110.986V111.365C41.2065 111.407 41.1898 111.447 41.1601 111.477C41.1304 111.507 41.0902 111.523 41.0483 111.523Z" fill="#CCCCCC"/>
<path d="M52.6981 128.61C51.8069 127.427 51.1025 126.114 50.6092 124.719C50.5806 124.635 50.5826 124.544 50.6149 124.462C50.6472 124.38 50.7076 124.312 50.7854 124.27L53.8348 122.639C53.8842 122.613 53.9389 122.598 53.9949 122.596C54.0509 122.593 54.1067 122.604 54.1581 122.626C54.2104 122.649 54.2568 122.683 54.2938 122.727C54.3308 122.77 54.3574 122.821 54.3716 122.876C54.7266 124.221 55.3937 125.464 56.3191 126.504C56.3572 126.546 56.3851 126.596 56.4007 126.651C56.4164 126.706 56.4192 126.763 56.4092 126.819C56.3995 126.875 56.3774 126.927 56.3445 126.972C56.3116 127.017 56.2687 127.054 56.2192 127.081L53.1699 128.711C53.0919 128.753 53.0016 128.765 52.9152 128.747C52.8288 128.728 52.7519 128.68 52.6981 128.61Z" fill="#CCCCCC"/>
<path d="M52.9062 128.453C52.9226 128.474 52.9457 128.488 52.9713 128.493C52.997 128.499 53.0238 128.495 53.047 128.482L56.0963 126.852C56.1112 126.844 56.124 126.833 56.1338 126.82C56.1436 126.806 56.1502 126.79 56.153 126.774C56.1562 126.757 56.1553 126.739 56.1504 126.722C56.1455 126.705 56.1367 126.689 56.1248 126.676C55.1721 125.606 54.4853 124.327 54.1199 122.942C54.1157 122.925 54.1075 122.909 54.0961 122.896C54.0847 122.882 54.0703 122.871 54.0541 122.865C54.0389 122.858 54.0222 122.855 54.0055 122.855C53.9888 122.856 53.9725 122.86 53.9578 122.868L50.9085 124.499C50.8854 124.512 50.8674 124.532 50.8575 124.556C50.8477 124.58 50.8467 124.607 50.8547 124.632C51.3392 126.003 52.0311 127.292 52.9062 128.453Z" fill="white"/>
<path d="M54.0351 124.967L52.3743 125.698C52.3111 125.726 52.2395 125.728 52.1752 125.703C52.1108 125.678 52.059 125.629 52.0311 125.566L51.99 125.473C51.9622 125.41 51.9606 125.338 51.9855 125.274C52.0104 125.21 52.0599 125.158 52.123 125.13L53.7838 124.398C53.847 124.371 53.9186 124.369 53.9829 124.394C54.0473 124.419 54.0991 124.468 54.127 124.531L54.1681 124.624C54.1959 124.687 54.1975 124.759 54.1726 124.823C54.1477 124.887 54.0982 124.939 54.0351 124.967Z" fill="#CCCCCC"/>
<path d="M54.6424 126.092L52.9816 126.824C52.9184 126.852 52.8468 126.853 52.7825 126.829C52.7181 126.804 52.6663 126.754 52.6383 126.691L52.5973 126.598C52.5695 126.535 52.5679 126.464 52.5928 126.4C52.6177 126.335 52.6672 126.284 52.7303 126.256L54.3911 125.524C54.4543 125.496 54.5259 125.495 54.5902 125.52C54.6546 125.545 54.7064 125.594 54.7343 125.657L54.7754 125.75C54.8032 125.813 54.8048 125.884 54.7799 125.949C54.755 126.013 54.7055 126.064 54.6424 126.092Z" fill="#CCCCCC"/>
<path d="M50.7473 125.154C50.6327 125.081 50.5356 124.983 50.463 124.868C50.3903 124.753 50.3438 124.623 50.3268 124.488C50.3097 124.354 50.3225 124.217 50.3642 124.087C50.406 123.958 50.4756 123.839 50.5683 123.739L49.8679 113.819L51.8855 114.014L51.9409 123.729C52.0983 123.896 52.1891 124.114 52.196 124.343C52.203 124.572 52.1255 124.795 51.9784 124.971C51.8312 125.147 51.6247 125.262 51.3978 125.296C51.1709 125.33 50.9394 125.28 50.7473 125.154Z" fill="#A0616A"/>
<path d="M50.3246 117.152C50.2774 117.118 50.2384 117.074 50.2105 117.023C50.1826 116.972 50.1665 116.916 50.1634 116.858L50.0155 114.184C50.0009 113.919 50.0851 113.658 50.2518 113.452C50.4185 113.245 50.656 113.107 50.9184 113.065C51.1808 113.023 51.4496 113.079 51.673 113.223C51.8963 113.367 52.0584 113.588 52.128 113.844L52.7774 116.235C52.8043 116.334 52.7906 116.441 52.7391 116.53C52.6876 116.62 52.6026 116.686 52.5027 116.713L50.6554 117.213C50.5993 117.228 50.5404 117.23 50.4832 117.22C50.4259 117.21 50.3718 117.186 50.3246 117.152Z" fill="#3F3D56"/>
<path d="M46.8858 137.35L45.8224 137.35L45.3162 133.255H46.8862L46.8858 137.35Z" fill="#A0616A"/>
<path d="M44.8249 137.047H47.1139V138.336H43.7708V138.099C43.7707 137.961 43.798 137.824 43.851 137.696C43.904 137.569 43.9816 137.453 44.0795 137.355C44.1774 137.257 44.2936 137.18 44.4215 137.127C44.5494 137.074 44.6864 137.047 44.8249 137.047Z" fill="#2F2E41"/>
<path d="M50.877 137.35L49.8136 137.35L49.3074 133.255H50.8774L50.877 137.35Z" fill="#A0616A"/>
<path d="M48.8161 137.047H51.1051V138.336H47.762V138.099C47.762 137.961 47.7892 137.824 47.8422 137.696C47.8952 137.569 47.9728 137.453 48.0707 137.355C48.1686 137.257 48.2848 137.18 48.4127 137.127C48.5406 137.074 48.6776 137.047 48.8161 137.047Z" fill="#2F2E41"/>
<path d="M46.8357 135.287L45.6647 135.231C45.565 135.227 45.4708 135.184 45.4017 135.112C45.3325 135.04 45.2936 134.945 45.2929 134.845C44.9842 130.089 44.5566 124.99 45.2112 123.02C45.2108 122.964 45.2225 122.908 45.2456 122.857C45.2688 122.806 45.3027 122.76 45.3451 122.724C45.3875 122.687 45.4374 122.659 45.4913 122.644C45.5453 122.628 45.602 122.624 45.6577 122.632L50.3424 123.31C50.435 123.323 50.5198 123.369 50.5812 123.439C50.6426 123.51 50.6765 123.6 50.6768 123.693C51.2749 126.026 51.3019 130.255 51.2793 134.65C51.2797 134.702 51.2699 134.753 51.2504 134.8C51.231 134.848 51.2023 134.891 51.166 134.928C51.1297 134.964 51.0865 134.993 51.0389 135.013C50.9914 135.033 50.9404 135.043 50.8888 135.043H49.6264C49.5333 135.043 49.4431 135.01 49.3723 134.95C49.3015 134.889 49.2548 134.806 49.2407 134.714L48.4618 129.772C48.4504 129.7 48.4132 129.634 48.3571 129.587C48.3009 129.54 48.2296 129.515 48.1562 129.516C48.0829 129.517 48.0126 129.545 47.9582 129.594C47.9038 129.643 47.869 129.71 47.8603 129.783L47.242 134.944C47.2304 135.039 47.1846 135.126 47.1132 135.189C47.0418 135.252 46.9497 135.287 46.8543 135.288C46.8481 135.288 46.842 135.288 46.8357 135.287Z" fill="#2F2E41"/>
<path d="M47.66 123.694C46.9762 123.293 46.2184 123.034 45.4319 122.932C45.3802 122.927 45.3301 122.912 45.2845 122.887C45.239 122.862 45.199 122.828 45.167 122.787C45.1342 122.746 45.1102 122.699 45.0963 122.648C45.0824 122.597 45.079 122.545 45.0862 122.493L46.2087 114.175C46.2733 113.689 46.4616 113.227 46.7557 112.833C47.0498 112.44 47.4399 112.128 47.8888 111.927C48.3233 111.728 48.8018 111.643 49.2786 111.68C49.7554 111.718 50.2147 111.876 50.6128 112.14C50.6513 112.166 50.689 112.192 50.7261 112.219C51.1845 112.554 51.5333 113.017 51.7284 113.55C51.9235 114.083 51.9563 114.661 51.8225 115.213C51.1341 118.023 50.8977 122.63 50.8572 123.525C50.8541 123.602 50.8283 123.675 50.7833 123.737C50.7382 123.799 50.6759 123.846 50.6041 123.872C50.1805 124.026 49.7336 124.105 49.283 124.107C48.7154 124.11 48.1565 123.968 47.66 123.694Z" fill="#3F3D56"/>
<path d="M48.5991 110.798C49.776 110.798 50.7301 109.846 50.7301 108.671C50.7301 107.497 49.776 106.544 48.5991 106.544C47.4221 106.544 46.468 107.497 46.468 108.671C46.468 109.846 47.4221 110.798 48.5991 110.798Z" fill="#A0616A"/>
<path d="M50.1071 110.354C50.018 110.45 49.9033 110.518 49.7765 110.551C49.6498 110.584 49.5162 110.581 49.3914 110.541C49.2667 110.501 49.156 110.426 49.0724 110.325C48.9888 110.224 48.9357 110.102 48.9194 109.972C48.9153 109.927 48.9156 109.882 48.9203 109.838C48.9979 109.592 49.0447 109.337 49.0596 109.08C49.0516 109.012 49.0265 108.948 48.9867 108.893C48.6699 108.47 47.9263 109.083 47.6273 108.7C47.4439 108.465 47.6595 108.094 47.5188 107.832C47.3331 107.485 46.7831 107.656 46.4382 107.466C46.0545 107.255 46.0774 106.667 46.33 106.31C46.4944 106.099 46.7035 105.926 46.9423 105.805C47.1811 105.684 47.4438 105.616 47.7116 105.608C48.2479 105.595 48.7805 105.699 49.2727 105.912C49.854 106.101 50.3669 106.456 50.7478 106.933C50.9448 107.246 51.0697 107.598 51.1134 107.965C51.157 108.332 51.1184 108.704 51.0002 109.055C50.7918 109.542 50.4882 109.984 50.1071 110.354Z" fill="#2F2E41"/>
<path d="M51.7946 112.422C51.7573 112.247 51.4372 112.008 50.979 111.813C50.2427 111.515 49.4463 111.395 48.6547 111.463C47.8631 111.531 47.0988 111.784 46.4239 112.203C46.3768 112.205 46.3319 112.223 46.296 112.254C46.2601 112.284 46.2352 112.325 46.2252 112.371L44.6842 119.173L44.4838 120.059L44.3511 120.645L44.1506 121.529L44.0439 122.001C44.0371 122.031 44.0368 122.062 44.0431 122.092C44.0493 122.123 44.062 122.151 44.0802 122.176C44.0985 122.201 44.1219 122.222 44.1488 122.237C44.1758 122.253 44.2057 122.262 44.2366 122.265L50.8905 122.838C50.8966 122.838 50.9035 122.839 50.9096 122.839C50.9645 122.839 51.0173 122.818 51.0572 122.78C51.0971 122.742 51.1213 122.691 51.1248 122.636L51.1881 121.674L51.2558 120.645L51.2853 120.2L51.3521 119.173L51.7955 112.433V112.427L51.7946 112.422Z" fill="#1F4C6B"/>
<path d="M40.8766 112.85C40.8872 112.897 40.8942 112.944 40.8974 112.992L44.6246 115.138L45.5305 114.617L46.4963 115.879L44.5582 117.258L40.3061 113.91C40.1326 113.974 39.9438 113.984 39.7646 113.938C39.5854 113.892 39.4244 113.793 39.3031 113.654C39.1817 113.515 39.1056 113.342 39.085 113.159C39.0644 112.975 39.1003 112.79 39.1878 112.627C39.2753 112.465 39.4103 112.333 39.5749 112.248C39.7395 112.164 39.9258 112.132 40.1092 112.156C40.2925 112.181 40.4641 112.26 40.6012 112.384C40.7383 112.508 40.8343 112.67 40.8766 112.85V112.85Z" fill="#A0616A"/>
<path d="M44.7577 114.955C44.7515 114.898 44.7584 114.839 44.7778 114.784C44.7972 114.73 44.8287 114.68 44.8699 114.639L46.7669 112.745C46.9548 112.558 47.2057 112.446 47.4712 112.432C47.7366 112.418 47.9978 112.503 48.2044 112.67C48.4111 112.837 48.5484 113.074 48.5901 113.336C48.6317 113.598 48.5747 113.866 48.43 114.089L47.0791 116.166C47.0226 116.253 46.9341 116.314 46.8328 116.335C46.7316 116.357 46.6259 116.337 46.539 116.281L44.9335 115.241C44.8846 115.21 44.8435 115.168 44.813 115.118C44.7826 115.069 44.7637 115.013 44.7577 114.955Z" fill="#1F4C6B"/>
<path d="M51.3521 119.173L51.2855 120.2L44.4836 120.059L44.6842 119.173H51.3521Z" fill="#CCCCCC"/>
<path d="M51.2559 120.645L51.1882 121.674L44.1508 121.529L44.3513 120.645H51.2559Z" fill="#CCCCCC"/>
<path d="M48.6408 104.539C47.9195 104.539 47.2266 104.819 46.7088 105.32C46.191 105.821 45.8889 106.504 45.8665 107.223H45.3437C45.2977 107.223 45.2535 107.242 45.221 107.274C45.1885 107.307 45.1702 107.351 45.1702 107.397V108.089C45.1702 108.135 45.1885 108.179 45.221 108.212C45.2535 108.244 45.2977 108.263 45.3437 108.263H51.2437C51.2897 108.263 51.3339 108.244 51.3664 108.212C51.399 108.179 51.4172 108.135 51.4172 108.089V107.31C51.4172 106.946 51.3454 106.586 51.2059 106.25C51.0664 105.913 50.8619 105.608 50.604 105.351C50.3462 105.093 50.0401 104.889 49.7033 104.75C49.3664 104.611 49.0054 104.539 48.6408 104.539Z" fill="#1F4C6B"/>
<path d="M64.267 132.73H63.6719C63.6681 132.658 62.8692 130.787 62.8692 130.787L62.3863 129.621L62.067 128.844L61.5841 127.678L61.0312 126.337C61.017 126.277 60.9828 126.223 60.934 126.184C60.8852 126.145 60.8248 126.124 60.7625 126.124C60.7003 126.124 60.6398 126.145 60.591 126.184C60.5423 126.223 60.508 126.277 60.4939 126.337L59.941 127.678L59.458 128.844L59.1388 129.621L58.6559 130.787C58.6559 130.787 57.8569 132.658 57.8531 132.73H57.258C57.1031 132.73 56.9546 132.791 56.845 132.901C56.7355 133.01 56.674 133.158 56.674 133.313C56.674 133.467 56.7355 133.616 56.845 133.725C56.9546 133.834 57.1031 133.896 57.258 133.896H64.267C64.4219 133.896 64.5705 133.834 64.68 133.725C64.7896 133.616 64.8511 133.467 64.8511 133.313C64.8511 133.158 64.7896 133.01 64.68 132.901C64.5705 132.791 64.4219 132.73 64.267 132.73Z" fill="#FF6584"/>
<path d="M63.8777 142.834H63.6471C63.6682 142.784 62.6434 140.168 62.6434 140.168L62.0281 138.672L61.6154 137.669L61.0001 136.173L60.3304 134.553C60.3116 134.476 60.2676 134.408 60.2055 134.359C60.1433 134.311 60.0667 134.284 59.9877 134.284C59.9088 134.284 59.8321 134.311 59.77 134.359C59.7079 134.408 59.6639 134.476 59.645 134.553L58.9754 136.173L58.3601 137.669L57.9433 138.672L57.3283 140.168C57.3283 140.168 56.3073 142.784 56.3284 142.834H56.0899C55.935 142.834 55.7865 142.896 55.6769 143.005C55.5674 143.114 55.5059 143.262 55.5059 143.417C55.5059 143.572 55.5674 143.72 55.6769 143.829C55.7865 143.939 55.935 144 56.0899 144H63.8777C64.0326 144 64.1812 143.939 64.2907 143.829C64.4003 143.72 64.4618 143.572 64.4618 143.417C64.4618 143.262 64.4003 143.114 64.2907 143.005C64.1812 142.896 64.0326 142.834 63.8777 142.834Z" fill="#FF6584"/>
<path d="M62.0669 128.844H59.458L59.9408 127.678H61.5841L62.0669 128.844Z" fill="#F2F2F2"/>
<path d="M62.8691 130.787H58.6559L59.1387 129.621H62.3862L62.8691 130.787Z" fill="#F2F2F2"/>
<path d="M61.6152 137.669H58.3599L58.9751 136.173H60.9999L61.6152 137.669Z" fill="#F2F2F2"/>
<path d="M62.6432 140.168H57.328L57.9432 138.672H62.0279L62.6432 140.168Z" fill="#F2F2F2"/>
<path d="M149.81 110.48C149.87 110.42 149.916 110.349 149.946 110.269C149.975 110.19 149.987 110.106 149.98 110.022C149.973 109.937 149.947 109.856 149.905 109.783C149.863 109.709 149.806 109.646 149.737 109.598L149.445 107.675L148.245 108.052L148.902 109.767C148.828 109.888 148.801 110.033 148.826 110.173C148.851 110.312 148.927 110.438 149.039 110.526C149.151 110.614 149.291 110.658 149.433 110.649C149.575 110.641 149.709 110.58 149.81 110.48Z" fill="#FFB8B8"/>
<path d="M148.574 109.576L147.833 106.125C147.761 105.795 147.775 105.451 147.874 105.128C147.973 104.804 148.154 104.512 148.399 104.278C149.346 103.366 150.564 102.218 150.985 101.921C151.379 101.64 151.857 101.499 152.342 101.521L152.352 101.522L152.988 102.123L151.601 104.402L149.496 105.718L149.73 109.1L148.574 109.576Z" fill="#8BC83F"/>
<path d="M151.166 104.887H148.06C147.925 104.887 147.816 104.996 147.816 105.13C147.816 105.264 147.925 105.373 148.06 105.373H151.166C151.301 105.373 151.41 105.264 151.41 105.13C151.41 104.996 151.301 104.887 151.166 104.887Z" fill="#CCCCCC"/>
<path d="M151.166 110.176H148.06C147.925 110.176 147.816 110.284 147.816 110.419C147.816 110.553 147.925 110.662 148.06 110.662H151.166C151.301 110.662 151.41 110.553 151.41 110.419C151.41 110.284 151.301 110.176 151.166 110.176Z" fill="#CCCCCC"/>
<path d="M149.643 123.428C149.613 123.428 149.584 123.416 149.561 123.396C149.539 123.375 149.525 123.347 149.522 123.317L147.969 105.141C147.968 105.125 147.969 105.109 147.974 105.094C147.979 105.078 147.987 105.064 147.997 105.052C148.007 105.04 148.02 105.029 148.034 105.022C148.048 105.015 148.064 105.01 148.08 105.009C148.096 105.007 148.112 105.009 148.127 105.014C148.142 105.019 148.156 105.026 148.169 105.037C148.181 105.047 148.191 105.06 148.198 105.074C148.206 105.088 148.21 105.103 148.212 105.119L149.642 121.913L151.031 105.12C151.032 105.104 151.037 105.088 151.044 105.074C151.051 105.06 151.061 105.047 151.074 105.037C151.086 105.026 151.1 105.019 151.115 105.014C151.131 105.009 151.147 105.007 151.163 105.008C151.179 105.01 151.194 105.014 151.208 105.022C151.223 105.029 151.235 105.039 151.246 105.051C151.256 105.064 151.264 105.078 151.268 105.093C151.273 105.108 151.275 105.125 151.274 105.141L149.765 123.317C149.762 123.347 149.748 123.375 149.726 123.396C149.703 123.416 149.674 123.428 149.643 123.428L149.643 123.428Z" fill="#CCCCCC"/>
<path d="M153.129 100.793C154.012 100.793 154.728 100.079 154.728 99.1984C154.728 98.3175 154.012 97.6034 153.129 97.6034C152.247 97.6034 151.531 98.3175 151.531 99.1984C151.531 100.079 152.247 100.793 153.129 100.793Z" fill="#FFB8B8"/>
<path d="M148.366 122.699L147.606 122.457L148.179 119.416L149.301 119.773L148.366 122.699Z" fill="#FFB8B8"/>
<path d="M148.324 123.372L145.877 122.593L145.898 122.53C145.975 122.287 146.146 122.085 146.373 121.968C146.6 121.851 146.864 121.829 147.107 121.906L148.637 122.393L148.324 123.372Z" fill="#2F2E41"/>
<path d="M153.897 122.683H153.099L152.719 119.612H153.897V122.683Z" fill="#FFB8B8"/>
<path d="M151.591 123.392H154.037V122.486H152.493C152.253 122.486 152.024 122.581 151.855 122.75C151.686 122.919 151.591 123.148 151.591 123.386V123.392Z" fill="#2F2E41"/>
<path d="M153.873 121.686L153.604 121.646C153.266 121.626 152.931 121.564 152.609 121.461C152.542 121.432 152.538 120.993 152.577 118.527C152.607 116.717 152.643 114.465 152.572 113.256C152.57 113.208 152.551 113.163 152.519 113.127C152.487 113.091 152.444 113.067 152.397 113.059C152.35 113.051 152.301 113.058 152.259 113.081C152.217 113.104 152.183 113.14 152.164 113.184C151.557 114.584 150.537 117.718 149.863 119.792C149.628 120.513 149.443 121.083 149.325 121.425C149.303 121.489 149.257 121.543 149.196 121.576C149.136 121.608 149.066 121.617 148.999 121.601C148.444 121.462 148.481 121.403 147.691 121.199C147.622 121.182 147.563 121.139 147.526 121.079C147.489 121.019 147.476 120.947 147.491 120.878C147.634 120.205 150.251 109.292 150.451 108.254C150.458 108.219 150.472 108.185 150.492 108.155C150.512 108.125 150.537 108.099 150.567 108.078C150.597 108.058 150.631 108.044 150.667 108.037C150.702 108.03 150.739 108.03 150.774 108.037C151.363 108.156 151.722 108.281 152.304 108.403C152.933 108.534 153.582 108.67 154.216 108.796C154.279 108.809 154.336 108.843 154.375 108.894C154.552 109.082 154.769 109.228 155.011 109.32C155.177 109.399 154.801 109.392 154.945 109.506C155.531 109.969 154.689 119.359 154.18 121.48C154.164 121.547 154.124 121.605 154.067 121.643C154.01 121.681 153.941 121.697 153.873 121.687V121.686Z" fill="#2F2E41"/>
<path d="M153.811 100.594C153.717 100.199 154.189 99.3488 154.096 98.9536C154.033 98.686 153.402 98.8679 153.255 98.6355C153.187 98.5157 153.09 98.4145 152.973 98.3406C152.857 98.2667 152.724 98.2224 152.586 98.2117C152.269 98.2082 151.958 98.4426 151.658 98.3413C151.587 98.3061 151.524 98.2573 151.472 98.1975C151.42 98.1378 151.38 98.0684 151.356 97.9933C151.331 97.9182 151.321 97.8389 151.328 97.7601C151.334 97.6813 151.356 97.6045 151.392 97.5342C151.552 97.2548 151.801 97.0367 152.1 96.9143C152.57 96.6275 153.133 96.5331 153.672 96.6506C153.98 96.7698 154.262 96.9469 154.503 97.1722C154.745 97.351 154.958 97.5662 155.133 97.8102C155.282 98.0646 155.363 98.353 155.368 98.6477C155.372 98.9423 155.301 99.2332 155.16 99.4922C154.869 100.009 154.405 100.408 153.849 100.618" fill="#2F2E41"/>
<path d="M149.886 109.79C150.059 109.502 150.321 108.155 150.644 105.893C150.864 104.349 151.055 102.78 151.15 101.979C151.158 101.914 151.181 101.852 151.219 101.799C151.257 101.745 151.308 101.703 151.367 101.675C151.429 101.645 151.49 101.617 151.551 101.59C152.283 101.256 153.095 101.138 153.892 101.249C154.689 101.361 155.438 101.698 156.049 102.221L156.056 102.228L156.058 102.237C156.061 102.255 156.391 104.03 155.715 105.23C155.048 106.413 155.04 109.548 155.04 109.579V109.619L155.002 109.608C153.964 109.313 149.957 109.83 149.916 109.835L149.854 109.844L149.886 109.79Z" fill="#8BC83F"/>
<path d="M155.917 105.677H152.811C152.676 105.677 152.567 105.786 152.567 105.92C152.567 106.055 152.676 106.164 152.811 106.164H155.917C156.052 106.164 156.161 106.055 156.161 105.92C156.161 105.786 156.052 105.677 155.917 105.677Z" fill="#CCCCCC"/>
<path d="M155.917 110.966H152.811C152.676 110.966 152.567 111.075 152.567 111.209C152.567 111.343 152.676 111.452 152.811 111.452H155.917C156.052 111.452 156.161 111.343 156.161 111.209C156.161 111.075 156.052 110.966 155.917 110.966Z" fill="#CCCCCC"/>
<path d="M154.394 123.489C154.364 123.489 154.334 123.477 154.312 123.457C154.29 123.436 154.276 123.408 154.273 123.378L152.72 105.931C152.717 105.899 152.727 105.867 152.748 105.842C152.769 105.818 152.798 105.802 152.831 105.799C152.863 105.796 152.895 105.806 152.92 105.827C152.944 105.848 152.96 105.878 152.963 105.91L154.393 121.973L155.782 105.91C155.783 105.894 155.788 105.878 155.795 105.864C155.802 105.85 155.812 105.837 155.825 105.827C155.837 105.817 155.851 105.809 155.866 105.804C155.882 105.799 155.898 105.797 155.914 105.799C155.93 105.8 155.945 105.805 155.959 105.812C155.974 105.819 155.986 105.83 155.997 105.842C156.007 105.854 156.015 105.868 156.019 105.884C156.024 105.899 156.026 105.915 156.024 105.931L154.516 123.377C154.513 123.408 154.499 123.436 154.477 123.457C154.454 123.477 154.425 123.489 154.394 123.489L154.394 123.489Z" fill="#CCCCCC"/>
<path d="M153.391 111.043C153.373 110.96 153.373 110.875 153.392 110.793C153.41 110.71 153.447 110.633 153.498 110.566C153.55 110.499 153.616 110.445 153.691 110.406C153.766 110.367 153.849 110.345 153.933 110.342L155.225 108.887L156.027 109.854L154.542 110.937C154.538 111.079 154.482 111.215 154.385 111.319C154.287 111.422 154.155 111.487 154.013 111.5C153.872 111.513 153.73 111.474 153.615 111.389C153.501 111.305 153.421 111.182 153.391 111.043H153.391Z" fill="#FFB8B8"/>
<path d="M154.143 110.03L156.181 107.318L155.13 105.071L155.207 102.406L156.068 102.247L156.077 102.251C156.496 102.496 156.82 102.873 156.999 103.323C157.19 103.8 157.587 105.425 157.886 106.704C157.965 107.033 157.957 107.376 157.864 107.702C157.771 108.027 157.596 108.323 157.355 108.561L154.855 111.056L154.143 110.03Z" fill="#8BC83F"/>
<path d="M145.601 122.734L148.389 123.404C148.443 123.419 148.5 123.414 148.551 123.39C148.602 123.366 148.642 123.326 148.666 123.275L151.061 116.92C151.072 116.896 151.077 116.869 151.077 116.843C151.077 116.816 151.072 116.79 151.061 116.765C151.049 116.738 151.032 116.713 151.01 116.693C150.988 116.672 150.962 116.656 150.934 116.646L148.838 115.847C148.805 115.835 148.769 115.829 148.734 115.831C148.698 115.833 148.664 115.842 148.632 115.859C148.605 115.872 148.581 115.891 148.561 115.915C148.542 115.938 148.528 115.966 148.52 115.995L148.52 115.996L147.04 121.597L147.018 121.598C146.559 121.625 146.123 121.807 145.78 122.113C145.709 122.199 145.657 122.298 145.626 122.405C145.595 122.512 145.586 122.624 145.601 122.734Z" fill="#CCCCCC"/>
<path d="M147.62 119.172L147.607 119.293L150.149 119.562L150.162 119.441L147.62 119.172Z" fill="#B3B3B3"/>
<path d="M147.398 120.174L147.348 120.284L149.394 121.203L149.444 121.092L147.398 120.174Z" fill="#B3B3B3"/>
<path d="M150.429 118.589L148.018 117.792L148.069 117.681L150.479 118.478L150.429 118.589Z" fill="#B3B3B3"/>
<path d="M150.673 118.042L148.262 116.88L148.312 116.769L150.723 117.931L150.673 118.042Z" fill="#B3B3B3"/>
<path d="M147.186 121.126L147.107 121.218L148.845 122.7L148.924 122.608L147.186 121.126Z" fill="#B3B3B3"/>
<path d="M146.692 121.617L146.581 121.667L147.279 123.203L147.39 123.153L146.692 121.617Z" fill="#B3B3B3"/>
<path d="M214.64 110.989C214.536 110.965 214.44 110.919 214.356 110.853C214.273 110.788 214.205 110.705 214.157 110.611C214.109 110.516 214.082 110.413 214.079 110.307C214.075 110.201 214.095 110.096 214.137 109.998L211.463 103.968L212.993 103.584L215.14 109.632C215.299 109.713 215.423 109.849 215.488 110.015C215.554 110.181 215.556 110.365 215.494 110.532C215.432 110.7 215.311 110.838 215.154 110.923C214.996 111.007 214.813 111.03 214.64 110.989Z" fill="#A0616A"/>
<path d="M211.959 105.858C211.916 105.839 211.878 105.811 211.848 105.776C211.817 105.74 211.794 105.699 211.78 105.654L211.313 104.093C211.211 103.877 211.199 103.629 211.28 103.404C211.361 103.179 211.528 102.995 211.745 102.893C211.961 102.791 212.21 102.779 212.435 102.86C212.661 102.941 212.845 103.108 212.947 103.324L213.851 104.687C213.877 104.726 213.894 104.77 213.901 104.816C213.909 104.862 213.906 104.909 213.893 104.954C213.881 104.999 213.858 105.041 213.828 105.076C213.798 105.112 213.76 105.141 213.718 105.16L212.23 105.855C212.188 105.875 212.142 105.886 212.095 105.886C212.048 105.886 212.002 105.877 211.959 105.858Z" fill="#6C63FF"/>
<path d="M217.403 105.08L215.763 106.239C215.742 106.254 215.716 106.262 215.69 106.262C215.665 106.262 215.639 106.254 215.618 106.239L215.175 105.907C215.16 105.896 215.148 105.882 215.139 105.866C215.131 105.85 215.126 105.832 215.125 105.814C215.124 105.796 215.128 105.778 215.135 105.761C215.142 105.744 215.153 105.729 215.167 105.717L216.429 104.594C216.446 104.579 216.466 104.57 216.488 104.565C216.509 104.561 216.532 104.563 216.552 104.57L217.374 104.863C217.395 104.871 217.414 104.885 217.428 104.902C217.442 104.92 217.451 104.941 217.454 104.963C217.457 104.985 217.454 105.008 217.445 105.028C217.436 105.049 217.421 105.067 217.403 105.08Z" fill="#3F3D56"/>
<path d="M217.27 104.97C217.274 104.959 217.273 104.947 217.268 104.937C217.264 104.926 217.255 104.918 217.244 104.914L216.504 104.649C216.497 104.647 216.489 104.646 216.481 104.648C216.474 104.649 216.466 104.653 216.46 104.658L215.322 105.671L215.316 105.678C215.312 105.682 215.31 105.687 215.309 105.693C215.307 105.698 215.307 105.704 215.308 105.709C215.309 105.715 215.311 105.72 215.314 105.725C215.317 105.729 215.321 105.734 215.325 105.737L215.724 106.036C215.732 106.041 215.741 106.044 215.75 106.044C215.759 106.044 215.768 106.041 215.776 106.035L217.254 104.99C217.261 104.985 217.267 104.978 217.27 104.97Z" fill="white"/>
<path d="M211.424 122.361H212.252L212.646 119.174H211.424V122.361Z" fill="#A0616A"/>
<path d="M211.213 122.091L212.844 122.091H212.844C212.98 122.091 213.115 122.118 213.241 122.17C213.367 122.222 213.482 122.299 213.579 122.395C213.675 122.491 213.752 122.606 213.804 122.731C213.856 122.857 213.883 122.992 213.883 123.128V123.162L211.213 123.162L211.213 122.091Z" fill="#2F2E41"/>
<path d="M208.656 122.361H209.484L209.877 119.174H208.656V122.361Z" fill="#A0616A"/>
<path d="M208.444 122.091L210.075 122.091H210.075C210.211 122.091 210.347 122.118 210.473 122.17C210.599 122.222 210.713 122.299 210.81 122.395C210.906 122.491 210.983 122.606 211.035 122.731C211.087 122.857 211.114 122.992 211.114 123.128V123.162L208.445 123.162L208.444 122.091Z" fill="#2F2E41"/>
<path d="M208.48 121.387C208.423 121.322 208.392 121.239 208.39 121.153C208.193 119.127 208.73 108.474 209.971 107.565L209.979 107.557L213.61 106.932L213.678 106.999C213.683 107.093 214.343 116.43 212.52 121.196C212.498 121.253 212.459 121.301 212.408 121.336C212.358 121.37 212.298 121.389 212.237 121.389H211.512C211.47 121.389 211.428 121.38 211.39 121.363C211.352 121.346 211.317 121.322 211.289 121.291C211.26 121.26 211.238 121.224 211.225 121.185C211.211 121.145 211.206 121.103 211.209 121.061L211.796 112.138C211.798 112.113 211.79 112.088 211.774 112.067C211.758 112.047 211.735 112.034 211.71 112.03C211.684 112.027 211.658 112.033 211.637 112.047C211.616 112.062 211.601 112.084 211.596 112.109L209.943 121.165C209.929 121.229 209.894 121.287 209.845 121.33C209.795 121.372 209.733 121.398 209.668 121.403L208.716 121.474C208.709 121.474 208.701 121.474 208.694 121.474C208.614 121.474 208.537 121.443 208.48 121.387Z" fill="#2F2E41"/>
<path d="M213.259 101.469C214.175 101.469 214.917 100.728 214.917 99.8139C214.917 98.8997 214.175 98.1586 213.259 98.1586C212.343 98.1586 211.6 98.8997 211.6 99.8139C211.6 100.728 212.343 101.469 213.259 101.469Z" fill="#A0616A"/>
<path d="M209.264 109.015C209.194 108.943 209.153 108.848 209.151 108.748L209.828 105.584C209.288 103.292 210.007 102.862 210.819 102.428L210.814 102.426L211.153 101.51C211.164 101.469 211.183 101.431 211.211 101.399C211.238 101.367 211.272 101.341 211.31 101.323C211.348 101.305 211.39 101.296 211.432 101.297C211.474 101.297 211.516 101.306 211.554 101.325L213.283 102.241C213.361 102.285 213.418 102.357 213.443 102.443C213.472 102.534 213.47 102.632 213.438 102.721L213.31 103.066C213.64 103.506 214.15 105.247 213.61 105.921L214.018 108.167C214.027 108.249 214.006 108.332 213.96 108.402C213.914 108.471 213.845 108.521 213.765 108.545L209.505 109.09C209.488 109.094 209.472 109.095 209.455 109.095C209.383 109.094 209.314 109.065 209.264 109.015Z" fill="#1F4C6B"/>
<path d="M215.465 105.385C215.438 105.411 215.413 105.438 215.39 105.468L212.049 105.237L211.69 104.508L210.517 104.904L211.026 106.256C211.067 106.366 211.143 106.459 211.241 106.521C211.34 106.584 211.456 106.613 211.573 106.604L215.372 106.317C215.456 106.434 215.574 106.522 215.709 106.57C215.845 106.618 215.992 106.624 216.131 106.587C216.27 106.55 216.395 106.471 216.488 106.361C216.581 106.252 216.638 106.117 216.653 105.974C216.667 105.831 216.637 105.687 216.568 105.561C216.498 105.435 216.392 105.334 216.263 105.27C216.134 105.206 215.988 105.183 215.846 105.203C215.703 105.224 215.571 105.287 215.465 105.385V105.385Z" fill="#A0616A"/>
<path d="M211.924 105.249L210.468 105.733C210.426 105.747 210.382 105.751 210.339 105.747C210.296 105.742 210.254 105.728 210.216 105.706C210.179 105.683 210.146 105.653 210.122 105.617C210.097 105.581 210.08 105.541 210.072 105.498L209.807 103.994C209.738 103.782 209.755 103.551 209.856 103.352C209.957 103.153 210.133 103.002 210.345 102.932C210.557 102.862 210.789 102.879 210.988 102.979C211.188 103.079 211.34 103.254 211.41 103.466L212.099 104.824C212.119 104.863 212.13 104.906 212.132 104.949C212.133 104.993 212.126 105.036 212.109 105.077C212.092 105.117 212.067 105.153 212.035 105.183C212.003 105.213 211.965 105.235 211.924 105.249Z" fill="#1F4C6B"/>
<path d="M212.327 98.5068C213.073 98.5068 213.678 97.9033 213.678 97.1588C213.678 96.4144 213.073 95.8109 212.327 95.8109C211.581 95.8109 210.976 96.4144 210.976 97.1588C210.976 97.9033 211.581 98.5068 212.327 98.5068Z" fill="#2F2E41"/>
<path d="M214.829 100.019C214.96 100.045 215.095 100.033 215.22 99.9859C215.283 99.9499 215.337 99.8995 215.378 99.8388C215.418 99.778 215.444 99.7087 215.452 99.6363C215.704 97.9676 214.282 98.1048 214.114 98.0326C214.008 97.9705 213.908 97.8979 213.816 97.816C213.58 97.6849 213.31 97.6256 213.039 97.6455C212.72 97.616 212.398 97.6553 212.096 97.7607C211.832 97.884 211.613 98.0856 211.468 98.3379C211.325 98.5891 211.22 98.8601 211.157 99.1421C211.057 99.4613 211.039 99.8002 211.104 100.128C211.173 100.373 211.317 100.59 211.516 100.749C211.715 100.908 211.959 101.001 212.213 101.015C212.172 100.819 212.197 100.614 212.285 100.434C212.372 100.253 212.516 100.106 212.695 100.016C212.98 99.8758 213.305 99.8372 213.615 99.9065C213.816 99.9471 214.02 99.9725 214.225 99.9823C214.426 99.9898 214.667 100.002 214.829 100.019Z" fill="#2F2E41"/>
<path d="M344.637 122.69C344.638 120.922 345.343 119.226 346.596 117.976C347.85 116.726 349.549 116.024 351.321 116.024C353.093 116.024 354.792 116.726 356.045 117.976C357.299 119.226 358.003 120.922 358.005 122.69" fill="#F2F2F2"/>
<path d="M351.321 122.69C351.273 122.69 351.227 122.671 351.193 122.637C351.159 122.603 351.14 122.558 351.14 122.51V118.994C351.14 118.946 351.159 118.9 351.193 118.867C351.227 118.833 351.273 118.814 351.321 118.814C351.369 118.814 351.415 118.833 351.449 118.867C351.482 118.9 351.501 118.946 351.501 118.994V122.51C351.501 122.558 351.482 122.603 351.449 122.637C351.415 122.671 351.369 122.69 351.321 122.69Z" fill="#CCCCCC"/>
<path d="M351.321 121.482C351.278 121.482 351.236 121.467 351.203 121.438L349.035 119.582C349.017 119.566 349.002 119.547 348.991 119.526C348.98 119.505 348.974 119.482 348.972 119.458C348.97 119.434 348.973 119.411 348.98 119.388C348.987 119.365 348.999 119.344 349.015 119.326C349.03 119.308 349.049 119.293 349.071 119.283C349.092 119.272 349.115 119.266 349.139 119.264C349.163 119.262 349.187 119.265 349.209 119.273C349.232 119.28 349.253 119.292 349.271 119.308L351.438 121.165C351.466 121.189 351.486 121.221 351.496 121.257C351.505 121.292 351.503 121.33 351.49 121.364C351.477 121.399 351.454 121.429 351.424 121.45C351.394 121.471 351.358 121.482 351.321 121.482L351.321 121.482Z" fill="#CCCCCC"/>
<path d="M365.231 122.69C365.232 120.922 365.937 119.226 367.19 117.976C368.444 116.726 370.143 116.024 371.915 116.024C373.687 116.024 375.386 116.726 376.639 117.976C377.893 119.226 378.597 120.922 378.599 122.69" fill="#F2F2F2"/>
<path d="M371.915 122.69C371.867 122.69 371.821 122.671 371.787 122.637C371.753 122.603 371.734 122.558 371.734 122.51V118.994C371.734 118.946 371.753 118.9 371.787 118.867C371.821 118.833 371.867 118.814 371.915 118.814C371.963 118.814 372.009 118.833 372.042 118.867C372.076 118.9 372.095 118.946 372.095 118.994V122.51C372.095 122.558 372.076 122.603 372.042 122.637C372.009 122.671 371.963 122.69 371.915 122.69Z" fill="#CCCCCC"/>
<path d="M371.915 121.482C371.871 121.482 371.83 121.467 371.797 121.438L369.629 119.582C369.611 119.566 369.596 119.547 369.585 119.526C369.574 119.505 369.567 119.482 369.566 119.458C369.564 119.434 369.566 119.411 369.574 119.388C369.581 119.365 369.593 119.344 369.609 119.326C369.624 119.308 369.643 119.293 369.664 119.283C369.686 119.272 369.709 119.265 369.733 119.264C369.757 119.262 369.78 119.265 369.803 119.273C369.826 119.28 369.847 119.292 369.865 119.308L372.032 121.165C372.06 121.189 372.08 121.221 372.09 121.257C372.099 121.292 372.097 121.33 372.084 121.364C372.071 121.399 372.048 121.429 372.018 121.45C371.988 121.471 371.952 121.482 371.915 121.482V121.482Z" fill="#CCCCCC"/>
</g>
<defs>
<clipPath id="clip0_2_1909">
<rect width="408" height="175" fill="white" transform="translate(-11 -31)"/>
</clipPath>
</defs>
</svg>
